# ProBuilder 4.2.3
# https://unity3d.com/unity/features/worldbuilding/probuilder
# 30/08/2020 17:02:26

mtllib ./ChestLid.mtl
o ChestLid

g ChestLid
v 0 0 1
v -1.25 0 1
v 0 0.25 1
v -1.25 0.25 1
v -1.25 0 -1
v -1.25 0.25 -1
v 0 0 -1
v 0 0.25 -1

vt 0 0
vt -1.25 0
vt 0 0.25
vt -1.25 0.25
vt 1 0
vt -1 0
vt 1 0.25
vt -1 0.25
vt 1.25 0
vt 1.25 0.25
vt 0 1
vt 1.25 1
vt 0 -1
vt 1.25 -1
vt -1.25 -1
vt -1.25 1

vn 0 0 1
vn -1 0 0
vn 0 0 -1
vn 1 0 0
vn 0 1 0
vn 0 -1 0

usemtl WoodenFurniture
f 3/3/1 4/4/1 2/2/1 1/1/1
f 4/7/2 6/8/2 5/6/2 2/5/2
f 6/10/3 8/3/3 7/1/3 5/9/3
f 8/7/4 3/8/4 1/6/4 7/5/4
f 8/13/5 6/14/5 4/12/5 3/11/5
f 1/11/6 2/16/6 5/15/6 7/13/6

